<svg width="18" height="15" viewBox="0 0 18 18" fill="none" xmlns="http://www.w3.org/2000/svg">
<path d="M10.1036 10.2285L9.04562 9.17575L7.98759 10.2285L1.76967 16.4157L1.74881 16.4364L1.72879 16.458C1.71728 16.4704 1.70295 16.4807 1.68644 16.4881C1.66992 16.4955 1.65177 16.4996 1.63314 16.5C1.61452 16.5003 1.59618 16.4969 1.5793 16.4902C1.56243 16.4834 1.54762 16.4735 1.53554 16.4615C1.52349 16.4495 1.51441 16.4356 1.50846 16.4209C1.50252 16.4062 1.49971 16.3907 1.50002 16.3753C1.50034 16.3599 1.50377 16.3445 1.51034 16.3299C1.51691 16.3154 1.52661 16.3018 1.53924 16.2902L1.56128 16.27L1.58249 16.2488L7.80041 10.0617L8.86927 8.99815L7.80014 7.93486L1.58222 1.75089L1.56114 1.72992L1.53924 1.7098C1.52661 1.6982 1.51691 1.6846 1.51034 1.67005C1.50377 1.65552 1.50034 1.64011 1.50002 1.6247C1.49971 1.60929 1.50252 1.59381 1.50846 1.57911C1.51441 1.56439 1.52349 1.55051 1.53554 1.53851C1.54762 1.52649 1.56243 1.5166 1.5793 1.50984C1.59618 1.50306 1.61452 1.49967 1.63314 1.50003C1.65177 1.50039 1.66991 1.50449 1.68644 1.51187C1.70295 1.51925 1.71727 1.52964 1.72879 1.54203L1.74888 1.56366L1.76981 1.58448L7.98773 7.77003L9.04575 8.82254L10.1036 7.76989L16.2884 1.61576C16.3116 1.59847 16.341 1.58855 16.3723 1.58917C16.4083 1.58989 16.4412 1.60449 16.4645 1.62765C16.4875 1.65059 16.4994 1.68001 16.5 1.7093C16.5005 1.73465 16.4925 1.76029 16.4761 1.78206L10.291 7.935L9.2221 8.99829L10.2908 10.0617L16.4761 16.2163C16.4925 16.2381 16.5005 16.2638 16.5 16.2891C16.4994 16.3184 16.4875 16.3478 16.4645 16.3708C16.4412 16.3939 16.4083 16.4085 16.3723 16.4093C16.341 16.4099 16.3116 16.4 16.2884 16.3827L10.1036 10.2285Z" fill="white" stroke="#1E1E1E" stroke-width="1.5"/>
</svg>
