<svg fill="none" xmlns="http://www.w3.org/2000/svg" viewBox="-5.03 -5.03 21.05 21.05">
<mask id="path-1-inside-1_575_4" fill="white">
<path d="M10.7352 9.28006C10.91 9.46816 11.0048 9.71626 10.9998 9.97237C10.9948 10.2285 10.8904 10.4727 10.7084 10.6539C10.5264 10.8351 10.281 10.9392 10.0237 10.9444C9.76627 10.9495 9.51687 10.8553 9.32772 10.6816L5.52788 6.90056L1.72804 10.6816C1.63696 10.7796 1.52692 10.8583 1.40453 10.913C1.28213 10.9677 1.1499 10.9972 1.01576 10.9998C0.881621 11.0024 0.748335 10.978 0.623897 10.9281C0.499459 10.8782 0.386432 10.8038 0.291595 10.7094C0.196758 10.6149 0.122064 10.5024 0.0719918 10.3786C0.0219199 10.2547 -0.00249817 10.1221 0.000201794 9.98859C0.00290176 9.85511 0.0326642 9.72356 0.0877043 9.60181C0.142744 9.48005 0.221928 9.37062 0.320508 9.28006L4.12035 5.49904L0.320508 1.71994C0.221928 1.62938 0.142744 1.51995 0.0877043 1.39819C0.0326642 1.27644 0.00290176 1.14489 0.000201794 1.01141C-0.00249817 0.877937 0.0219199 0.745295 0.0719918 0.621439C0.122064 0.497583 0.196758 0.385065 0.291595 0.290632C0.386432 0.1962 0.499459 0.121799 0.623897 0.0718897C0.748335 0.0219807 0.881621 -0.00240757 1.01576 0.00018732C1.1499 0.00278221 1.28213 0.0323068 1.40453 0.0869906C1.52692 0.141674 1.63696 0.220391 1.72804 0.31842L5.52788 4.09848L9.32772 0.317457C9.51687 0.143695 9.76627 0.0495233 10.0237 0.0546783C10.281 0.0598333 10.5264 0.163914 10.7084 0.34511C10.8904 0.526306 10.9948 0.770553 10.9998 1.02667C11.0048 1.28278 10.91 1.53088 10.7352 1.71898L6.9354 5.49904L10.7352 9.28006Z"/>
</mask>
<path d="M10.7352 9.28006C10.91 9.46816 11.0048 9.71626 10.9998 9.97237C10.9948 10.2285 10.8904 10.4727 10.7084 10.6539C10.5264 10.8351 10.281 10.9392 10.0237 10.9444C9.76627 10.9495 9.51687 10.8553 9.32772 10.6816L5.52788 6.90056L1.72804 10.6816C1.63696 10.7796 1.52692 10.8583 1.40453 10.913C1.28213 10.9677 1.1499 10.9972 1.01576 10.9998C0.881621 11.0024 0.748335 10.978 0.623897 10.9281C0.499459 10.8782 0.386432 10.8038 0.291595 10.7094C0.196758 10.6149 0.122064 10.5024 0.0719918 10.3786C0.0219199 10.2547 -0.00249817 10.1221 0.000201794 9.98859C0.00290176 9.85511 0.0326642 9.72356 0.0877043 9.60181C0.142744 9.48005 0.221928 9.37062 0.320508 9.28006L4.12035 5.49904L0.320508 1.71994C0.221928 1.62938 0.142744 1.51995 0.0877043 1.39819C0.0326642 1.27644 0.00290176 1.14489 0.000201794 1.01141C-0.00249817 0.877937 0.0219199 0.745295 0.0719918 0.621439C0.122064 0.497583 0.196758 0.385065 0.291595 0.290632C0.386432 0.1962 0.499459 0.121799 0.623897 0.0718897C0.748335 0.0219807 0.881621 -0.00240757 1.01576 0.00018732C1.1499 0.00278221 1.28213 0.0323068 1.40453 0.0869906C1.52692 0.141674 1.63696 0.220391 1.72804 0.31842L5.52788 4.09848L9.32772 0.317457C9.51687 0.143695 9.76627 0.0495233 10.0237 0.0546783C10.281 0.0598333 10.5264 0.163914 10.7084 0.34511C10.8904 0.526306 10.9948 0.770553 10.9998 1.02667C11.0048 1.28278 10.91 1.53088 10.7352 1.71898L6.9354 5.49904L10.7352 9.28006Z" fill="white"/>
<path d="M10.7352 9.28006L14.3983 5.8768L14.3315 5.80494L14.262 5.73576L10.7352 9.28006ZM9.32772 10.6816L5.80097 14.2259L5.87169 14.2962L5.94516 14.3637L9.32772 10.6816ZM5.52788 6.90056L9.05462 3.35626L5.52788 -0.153024L2.00113 3.35626L5.52788 6.90056ZM1.72804 10.6816L-1.79871 7.13728L-1.86824 7.20646L-1.935 7.27832L1.72804 10.6816ZM0.320508 9.28006L3.70307 12.9622L3.77654 12.8947L3.84725 12.8244L0.320508 9.28006ZM4.12035 5.49904L7.6471 9.04334L11.2099 5.49813L7.64619 1.95384L4.12035 5.49904ZM0.320508 1.71994L3.84635 -1.82526L3.77607 -1.89516L3.70307 -1.96222L0.320508 1.71994ZM1.72804 0.31842L-1.935 3.72168L-1.86802 3.79377L-1.79826 3.86317L1.72804 0.31842ZM5.52788 4.09848L2.00158 7.64323L5.52833 11.1516L9.05462 7.64278L5.52788 4.09848ZM9.32772 0.317457L5.94516 -3.3647L5.87169 -3.29721L5.80097 -3.22684L9.32772 0.317457ZM10.7352 1.71898L14.2615 5.26373L14.3313 5.19433L14.3983 5.12224L10.7352 1.71898ZM6.9354 5.49904L3.40911 1.95429L-0.153735 5.49858L3.40866 9.04334L6.9354 5.49904ZM7.07222 12.6833C6.36693 11.9242 5.98038 10.918 6.00077 9.8747L15.9989 10.07C16.0292 8.51454 15.4531 7.01211 14.3983 5.8768L7.07222 12.6833ZM6.00077 9.8747C6.02115 8.83147 6.44664 7.84151 7.18044 7.11084L14.2364 14.197C15.3341 13.104 15.9685 11.6255 15.9989 10.07L6.00077 9.8747ZM7.18044 7.11084C7.91349 6.38092 8.89702 5.96592 9.92353 5.94536L10.1238 15.9434C11.6651 15.9125 13.1394 15.2893 14.2364 14.197L7.18044 7.11084ZM9.92353 5.94536C10.95 5.9248 11.9489 6.30003 12.7103 6.99943L5.94516 14.3637C7.0848 15.4107 8.58255 15.9742 10.1238 15.9434L9.92353 5.94536ZM12.8545 7.13728L9.05462 3.35626L2.00113 10.4449L5.80097 14.2259L12.8545 7.13728ZM2.00113 3.35626L-1.79871 7.13728L5.25478 14.2259L9.05462 10.4449L2.00113 3.35626ZM-1.935 7.27832C-1.56766 6.88294 -1.12525 6.56692 -0.635078 6.34792L3.44414 15.4781C4.17909 15.1497 4.84157 14.6763 5.39107 14.0848L-1.935 7.27832ZM-0.635078 6.34792C-0.144931 6.12893 0.383617 6.01111 0.919057 6.00075L1.11247 15.9989C1.91619 15.9833 2.7092 15.8065 3.44414 15.4781L-0.635078 6.34792ZM0.919057 6.00075C1.45451 5.99039 1.98711 6.0877 2.48515 6.28745L-1.23736 15.5688C-0.490436 15.8683 0.30873 16.0144 1.11247 15.9989L0.919057 6.00075ZM2.48515 6.28745C2.98325 6.48722 3.43735 6.7857 3.81956 7.16628L-3.23637 14.2525C-2.66449 14.8219 -1.98433 15.2692 -1.23736 15.5688L2.48515 6.28745ZM3.81956 7.16628C4.20182 7.54691 4.50429 8.00186 4.70751 8.50453L-4.56353 12.2526C-4.26016 13.003 -3.80831 13.683 -3.23637 14.2525L3.81956 7.16628ZM4.70751 8.50453C4.91075 9.00725 5.01017 9.54651 4.99918 10.0897L-4.99878 9.88747C-5.01516 10.6976 -4.86691 11.5022 -4.56353 12.2526L4.70751 8.50453ZM4.99918 10.0897C4.98819 10.6329 4.86705 11.1676 4.64377 11.6615L-4.46836 7.54213C-4.80172 8.27954 -4.98239 9.07733 -4.99878 9.88747L4.99918 10.0897ZM4.64377 11.6615C4.42052 12.1553 4.10011 12.5975 3.70307 12.9622L-3.06206 5.59791C-3.65625 6.14376 -4.13503 6.80478 -4.46836 7.54213L4.64377 11.6615ZM3.84725 12.8244L7.6471 9.04334L0.593602 1.95474L-3.20624 5.73576L3.84725 12.8244ZM7.64619 1.95384L3.84635 -1.82526L-3.20534 5.26514L0.594506 9.04423L7.64619 1.95384ZM3.70307 -1.96222C4.10011 -1.59748 4.42052 -1.15532 4.64377 -0.661478L-4.46836 3.45787C-4.13503 4.19521 -3.65626 4.85624 -3.06206 5.40209L3.70307 -1.96222ZM4.64377 -0.661478C4.86705 -0.167577 4.98819 0.367099 4.99918 0.910291L-4.99878 1.11253C-4.98239 1.92267 -4.80172 2.72046 -4.46836 3.45787L4.64377 -0.661478ZM4.99918 0.910291C5.01017 1.45349 4.91075 1.99274 4.70751 2.49547L-4.56353 -1.25259C-4.86691 -0.502154 -5.01516 0.302388 -4.99878 1.11253L4.99918 0.910291ZM4.70751 2.49547C4.5043 2.99813 4.20183 3.45308 3.81956 3.83372L-3.23637 -3.25246C-3.80831 -2.68295 -4.26017 -2.00296 -4.56353 -1.25259L4.70751 2.49547ZM3.81956 3.83372C3.43735 4.2143 2.98324 4.51278 2.48515 4.71255L-1.23736 -4.56877C-1.98432 -4.26918 -2.66448 -3.8219 -3.23637 -3.25246L3.81956 3.83372ZM2.48515 4.71255C1.98711 4.9123 1.45452 5.00961 0.919057 4.99925L1.11247 -4.99888C0.308725 -5.01443 -0.49044 -4.86834 -1.23736 -4.56877L2.48515 4.71255ZM0.919057 4.99925C0.383595 4.98889 -0.144951 4.87106 -0.635078 4.65208L3.44414 -4.47809C2.70922 -4.80644 1.91621 -4.98333 1.11247 -4.99888L0.919057 4.99925ZM-0.635078 4.65208C-1.12526 4.43307 -1.56767 4.11705 -1.935 3.72168L5.39107 -3.08484C4.84158 -3.67627 4.1791 -4.14972 3.44414 -4.47809L-0.635078 4.65208ZM-1.79826 3.86317L2.00158 7.64323L9.05417 0.553731L5.25433 -3.22633L-1.79826 3.86317ZM9.05462 7.64278L12.8545 3.86176L5.80097 -3.22684L2.00113 0.55418L9.05462 7.64278ZM12.7103 3.99961C11.949 4.699 10.95 5.07423 9.92353 5.05368L10.1238 -4.94432C8.58254 -4.97519 7.08479 -4.41161 5.94516 -3.3647L12.7103 3.99961ZM9.92353 5.05368C8.89702 5.03312 7.9135 4.61812 7.18044 3.8882L14.2364 -3.19798C13.1394 -4.2903 11.6651 -4.91345 10.1238 -4.94432L9.92353 5.05368ZM7.18044 3.8882C6.44664 3.15753 6.02115 2.16756 6.00077 1.12434L15.9989 0.928997C15.9685 -0.626458 15.3341 -2.10492 14.2364 -3.19798L7.18044 3.8882ZM6.00077 1.12434C5.98038 0.081069 6.36692 -0.925161 7.07222 -1.68429L14.3983 5.12224C15.4531 3.98692 16.0292 2.48449 15.9989 0.928997L6.00077 1.12434ZM7.20895 -1.82577L3.40911 1.95429L10.4617 9.04379L14.2615 5.26373L7.20895 -1.82577ZM3.40866 9.04334L7.2085 12.8244L14.262 5.73576L10.4622 1.95474L3.40866 9.04334Z" fill="white" mask="url(#path-1-inside-1_575_4)"/>
</svg>