<svg width="28" height="31" viewBox="0 0 28 31" fill="none" xmlns="http://www.w3.org/2000/svg">
<path d="M0 6.66667C0 5.93031 0.537258 5.33336 1.2 5.33336L5.34438 5.33264C6.16781 5.30945 6.89425 4.7277 7.17444 3.86706C7.18181 3.84443 7.19028 3.81652 7.22066 3.71524L7.39923 3.11989C7.50851 2.75486 7.60371 2.43683 7.73694 2.15258C8.26325 1.02959 9.23701 0.249769 10.3623 0.0501171C10.6471 -0.000422865 10.9488 -0.000209952 11.295 3.32483e-05H16.7053C17.0515 -0.000209952 17.3532 -0.000422865 17.638 0.0501171C18.7633 0.249769 19.737 1.02959 20.2633 2.15258C20.3966 2.43683 20.4918 2.75486 20.601 3.11989L20.7796 3.71524C20.8099 3.81652 20.8185 3.84443 20.8258 3.86706C21.1061 4.7277 21.9766 5.31016 22.7999 5.33336H26.8C27.4627 5.33336 28 5.93031 28 6.66667C28 7.40305 27.4627 8 26.8 8H1.2C0.537258 8 0 7.40305 0 6.66667Z" fill="white"/>
<path fill-rule="evenodd" clip-rule="evenodd" d="M13.3645 31H14.6355C19.0083 31 21.1948 31 22.6163 29.6405C24.038 28.281 24.1833 26.0509 24.4742 21.5905L24.8933 15.1637C25.0512 12.7436 25.1301 11.5336 24.4168 10.7668C23.7037 10 22.4994 10 20.0908 10H7.9092C5.50056 10 4.29624 10 3.58308 10.7668C2.86992 11.5336 2.94883 12.7436 3.10667 15.1637L3.52578 21.5905C3.81667 26.0509 3.96211 28.281 5.38368 29.6405C6.80526 31 8.99168 31 13.3645 31ZM11.2442 15.9431C11.1794 15.2774 10.6018 14.7915 9.95414 14.8581C9.30647 14.9247 8.83394 15.5185 8.8987 16.1842L9.68441 24.2612C9.74918 24.9269 10.3267 25.4128 10.9744 25.3462C11.6221 25.2796 12.0946 24.6858 12.0299 24.0201L11.2442 15.9431ZM18.0458 14.8581C18.6935 14.9247 19.1661 15.5185 19.1013 16.1842L18.3156 24.2612C18.2509 24.9269 17.6732 25.4128 17.0256 25.3462C16.3779 25.2796 15.9053 24.6858 15.9701 24.0201L16.7558 15.9431C16.8205 15.2774 17.3982 14.7915 18.0458 14.8581Z" fill="white"/>
</svg>
