<svg width="28" height="28" viewBox="0 0 28 28" fill="none" xmlns="http://www.w3.org/2000/svg">
<path d="M9.15829 0.863879C12.0402 -0.198329 15.1914 -0.283351 18.1263 0.621913C20.1563 1.24806 22.005 2.32393 23.542 3.75545L25.0126 2.28487C26.1151 1.18243 28 1.96322 28 3.52231V10.5H21.0222C19.4632 10.5 18.6825 8.61504 19.7848 7.51259L21.0651 6.2324C19.9307 5.20072 18.5773 4.42369 17.0948 3.96643C14.8935 3.28748 12.5301 3.35125 10.3687 4.1479C8.20731 4.94457 6.36785 6.4299 5.13382 8.37503C3.89977 10.3202 3.33963 12.6171 3.53969 14.912C3.73977 17.2068 4.68895 19.3721 6.24097 21.0744C7.79301 22.7766 9.86174 23.9213 12.1284 24.3318C14.3951 24.7424 16.7339 24.3962 18.7843 23.3466C20.835 22.2971 22.4833 20.6022 23.4757 18.5234C23.892 17.6512 24.9366 17.2816 25.809 17.6979C26.6812 18.1143 27.0506 19.159 26.6343 20.0312C25.3111 22.8028 23.1133 25.0626 20.3793 26.4623C17.6451 27.8617 14.5268 28.3232 11.5045 27.7758C8.48232 27.2282 5.72401 25.7023 3.65463 23.4325C1.58526 21.1629 0.319681 18.2758 0.0529189 15.216C-0.213841 12.1561 0.533017 9.09352 2.1784 6.50002C3.8238 3.90652 6.27641 1.92609 9.15829 0.863879Z" fill="#454545"/>
</svg>
